# xmcd
#
# Track frame offsets: 
#        150
#        18914
#        35929
#        60832
#
# Disc length: 1237 seconds
#
# Revision: 0
# Processed by: cddbd v1.4PL0 Copyright (c) Steve Scherf et al.
# Submitted via: ExactAudioCopy v0.90b4
#
DISCID=2904d304
DTITLE=Shania Twain - Forever and For Always
DYEAR=2003
DGENRE=Country
TTITLE0=Forever and For Always (Edit)
TTITLE1=That Don't Impress Me Much (Live)
TTITLE2=Come On Over (Live)
TTITLE3=Forever and For Always (Video)
EXTD=
EXTT0=
EXTT1=
EXTT2=
EXTT3=
PLAYORDER=
